<?xml version="1.0" encoding="utf-8"?>
<!-- Generator: Adobe Illustrator 16.0.0, SVG Export Plug-In . SVG Version: 6.00 Build 0)  -->
<!DOCTYPE svg PUBLIC "-//W3C//DTD SVG 1.1//EN" "http://www.w3.org/Graphics/SVG/1.1/DTD/svg11.dtd">
<svg version="1.1" id="Layer_1" xmlns="http://www.w3.org/2000/svg" xmlns:xlink="http://www.w3.org/1999/xlink" x="0px" y="0px"
	 width="792px" height="612px" viewBox="0 0 792 612" enable-background="new 0 0 792 612" xml:space="preserve">
<g>
	<g>
		<path fill="#CDDEFF" d="M700.65,53.196l-1.154-10.969c-2.31-22.514-20.782-39.832-43.873-41.563l-9.236-0.578
			c-27.709-1.154-54.842,9.237-74.469,28.864l-92.364,91.787l-302.493-0.577c-25.4,0-50.223,10.391-68.696,28.864l-12.7,12.7
			c-4.041,4.041-5.773,10.968-4.618,16.741c1.732,5.772,5.773,10.391,11.545,12.123l240.725,65.81l-55.996,55.996l-101.601,3.464
			c-10.391,0-20.205,4.041-27.709,12.122l-9.813,9.814c-4.041,4.04-5.773,10.391-4.618,16.163
			c1.732,5.773,5.772,9.813,10.968,12.123l129.31,49.068l51.955,133.929c2.309,5.772,7.505,9.813,13.277,10.391
			c5.773,0.577,10.968-1.154,15.009-5.772l10.391-10.392c6.927-6.927,10.968-16.163,12.123-27.709l3.464-102.178l56.573-55.419
			L511.881,599.3c1.732,5.772,6.351,10.391,12.123,12.123c1.731,0.577,2.887,0.577,4.618,0.577c4.618,0,9.236-1.732,12.7-5.195
			l12.7-12.7c18.473-18.473,28.863-43.296,28.863-69.273V222.338l89.479-90.055C693.724,111.501,704.114,82.06,700.65,53.196z
			 M656.2,116.119l-93.519,93.519c-2.31,2.309-3.464,5.195-3.464,8.082v307.111c0,20.205-8.082,38.678-21.937,53.109l-5.772,5.773
			l-68.696-249.961c-1.154-4.041-4.041-6.928-8.082-8.082c-1.154,0-1.731-0.577-2.886-0.577c-2.887,0-5.773,1.154-8.082,3.463
			l-73.892,72.737c-2.309,2.31-3.464,4.618-3.464,8.082l-3.463,106.219c0,3.464-1.155,8.659-5.196,12.123l-4.041,4.041
			l-50.223-129.888c-1.155-2.886-3.464-5.195-6.928-6.35l-125.269-47.914l3.464-3.464c1.732-1.731,6.35-5.195,12.123-5.195
			l106.796-3.464c2.886,0,5.773-1.154,7.505-3.464l73.314-73.314c2.886-2.886,4.041-6.927,2.886-10.968
			c-1.154-4.041-4.041-6.927-8.082-8.082L118.755,170.96l5.773-5.772c13.854-13.855,32.905-21.937,52.532-21.937l307.111,0.577
			c2.887,0,5.772-1.155,8.082-3.464l95.828-95.25c15.009-15.009,35.791-23.091,57.15-21.937l9.236,0.577
			c11.545,0.577,20.781,9.814,21.937,20.782l1.154,10.968C679.869,78.019,672.364,99.956,656.2,116.119z"/>
	</g>
</g>
</svg>
