<?xml version="1.0" encoding="utf-8"?>
<!-- Generator: Adobe Illustrator 16.0.0, SVG Export Plug-In . SVG Version: 6.00 Build 0)  -->
<!DOCTYPE svg PUBLIC "-//W3C//DTD SVG 1.1//EN" "http://www.w3.org/Graphics/SVG/1.1/DTD/svg11.dtd">
<svg version="1.1" id="Layer_1" xmlns="http://www.w3.org/2000/svg" xmlns:xlink="http://www.w3.org/1999/xlink" x="0px" y="0px"
	 width="170px" height="150px" viewBox="0 0 170 150" enable-background="new 0 0 170 150" xml:space="preserve">
<path fill="#3F64AF" d="M134.524,101.162c-3.901,0-7.607,1.527-10.402,4.291c-2.797,2.796-4.356,6.438-4.356,10.338
	c0,3.901,1.527,7.543,4.356,10.338c2.827,2.764,6.501,4.291,10.402,4.291c7.997,0,14.499-6.565,14.499-14.629
	C149.023,107.729,142.521,101.162,134.524,101.162z M134.524,123.919c-4.487,0-8.257-3.706-8.257-8.127
	c0-4.422,3.77-8.127,8.257-8.127c4.421,0,7.997,3.641,7.997,8.127C142.521,120.277,138.945,123.919,134.524,123.919z
	 M138.295,52.432c-0.585-0.553-1.364-0.846-2.179-0.846H119.44c-1.788,0-3.252,1.463-3.252,3.251v26.657
	c0,1.788,1.464,3.253,3.252,3.253h26.462c1.788,0,3.251-1.465,3.251-3.253V63.647c0-0.91-0.391-1.788-1.072-2.406L138.295,52.432z
	 M142.651,78.243H122.69V58.055h12.159l7.802,7.022V78.243L142.651,78.243z M55.137,101.162c-3.901,0-7.608,1.527-10.404,4.291
	c-2.795,2.796-4.355,6.438-4.355,10.338c0,3.901,1.527,7.543,4.355,10.338c2.829,2.764,6.502,4.291,10.404,4.291
	c7.997,0,14.499-6.565,14.499-14.629C69.636,107.729,63.134,101.162,55.137,101.162z M55.137,123.919
	c-4.486,0-8.258-3.706-8.258-8.127c0-4.422,3.771-8.127,8.258-8.127c4.421,0,7.997,3.641,7.997,8.127
	C63.134,120.277,59.558,123.919,55.137,123.919z M33.454,105.161h-6.535v-8.648c0-1.787-1.463-3.251-3.25-3.251
	c-1.789,0-3.251,1.464-3.251,3.251v11.898c0,1.788,1.463,3.251,3.251,3.251h9.785c1.788,0,3.25-1.463,3.25-3.251
	C36.704,106.625,35.242,105.161,33.454,105.161z M49.935,87.443c0-1.788-1.462-3.251-3.25-3.251H7.25
	c-1.787,0-3.25,1.463-3.25,3.251s1.463,3.252,3.25,3.252h39.434C48.473,90.695,49.935,89.265,49.935,87.443z M13.85,75.707
	l39.433,0.228c1.789,0,3.251-1.43,3.284-3.218c0.032-1.821-1.43-3.283-3.218-3.283l-39.434-0.228c-0.032,0-0.032,0-0.032,0
	c-1.789,0-3.251,1.431-3.251,3.218C10.599,74.245,12.063,75.707,13.85,75.707z M20.482,60.949h39.434c1.788,0,3.25-1.463,3.25-3.251
	c0-1.787-1.462-3.25-3.25-3.25H20.482c-1.788,0-3.251,1.463-3.251,3.25C17.231,59.486,18.695,60.949,20.482,60.949z M162.449,56.56
	L162.449,56.56l-23.276-19.278c-0.585-0.488-1.3-0.748-2.081-0.748h-27.371V24.832c0-1.788-1.464-3.251-3.253-3.251H23.668
	c-1.789,0-3.251,1.463-3.251,3.251v23.796c0,1.788,1.463,3.251,3.251,3.251c1.787,0,3.25-1.463,3.25-3.251V28.082h76.332v77.079
	H76.594c-1.789,0-3.251,1.464-3.251,3.25c0,1.788,1.462,3.251,3.251,3.251h39.692c1.788,0,3.251-1.463,3.251-3.251
	c0-1.786-1.463-3.25-3.251-3.25h-6.534V43.036h26.202l21.196,17.555l-0.228,44.506h-3.381c-1.789,0-3.25,1.463-3.25,3.251
	s1.461,3.25,3.25,3.25h6.6c1.787,0,3.251-1.43,3.251-3.219l0.26-49.283C163.619,58.121,163.197,57.178,162.449,56.56z"/>
</svg>
