<?xml version="1.0" encoding="utf-8"?>
<!-- Generator: Adobe Illustrator 16.0.0, SVG Export Plug-In . SVG Version: 6.00 Build 0)  -->
<!DOCTYPE svg PUBLIC "-//W3C//DTD SVG 1.1//EN" "http://www.w3.org/Graphics/SVG/1.1/DTD/svg11.dtd">
<svg version="1.1" id="Layer_1" xmlns="http://www.w3.org/2000/svg" xmlns:xlink="http://www.w3.org/1999/xlink" x="0px" y="0px"
	 width="896.565px" height="709.889px" viewBox="0 -97.889 896.565 709.889" enable-background="new 0 -97.889 896.565 709.889"
	 xml:space="preserve">
<g>
	<g>
		<path fill="#2761D8" d="M728.661,62.309l-32.01,4.317l-42.173-28.729l79.04-93.228l-37.371-25.167L590.599-5.621l-36.334-24.753
			c-16.886-11.371-39.873-6.881-51.241,10.004c-5.506,8.18-7.499,18.015-5.609,27.691c1.89,9.678,7.435,18.041,15.672,23.589
			l36.559,24.252l-29.693,126.027l37.377,25.164l56.729-108.458l41.387,27.457l8.039,31.274l39.111,26.335l16.436-56.495
			l48.884-37.732L728.661,62.309z M696.445-56.021l7.166,4.826l-65.866,77.69L608.354,6.472L696.445-56.021z M549.913,177.086
			l-7.167-4.826l24.79-105.227l29.652,19.671L549.913,177.086z M701.53,114.539l-10.563,36.316l-9.885-6.655l-8.057-31.351
			l-148.753-98.68c-3.718-2.503-6.235-6.305-7.097-10.704c-0.857-4.399,0.047-8.869,2.55-12.586
			c5.169-7.674,15.615-9.715,23.247-4.581L691.699,87.612l32.071-4.325l9.746,6.563L701.53,114.539z"/>
	</g>
</g>
<g>
	<g>
		<path fill="#2761D8" d="M135.268,360.288l-19.141,6.261c2.146,6.562,4.524,13.139,7.069,19.547l18.716-7.432
			C139.524,372.642,137.287,366.458,135.268,360.288z"/>
	</g>
</g>
<g>
	<g>
		<path fill="#2761D8" d="M104.326,202.662c-1.17,6.779-2.149,13.688-2.903,20.536l20.015,2.208
			c0.712-6.442,1.632-12.94,2.733-19.319L104.326,202.662z"/>
	</g>
</g>
<g>
	<g>
		<path fill="#2761D8" d="M147.359,86.683c-3.533,5.903-6.931,11.993-10.094,18.098l17.877,9.267
			c2.978-5.741,6.173-11.47,9.495-17.021L147.359,86.683z"/>
	</g>
</g>
<g>
	<g>
		<path fill="#2761D8" d="M128.3,123.459c-2.781,6.282-5.407,12.736-7.801,19.185l18.878,7.012
			c2.253-6.066,4.72-12.134,7.336-18.044L128.3,123.459z"/>
	</g>
</g>
<g>
	<g>
		<path fill="#2761D8" d="M113.88,162.306c-1.995,6.589-3.812,13.329-5.398,20.032l19.595,4.638
			c1.491-6.304,3.2-12.639,5.074-18.835L113.88,162.306z"/>
	</g>
</g>
<g>
	<g>
		<path fill="#2761D8" d="M170.767,52.487c-4.227,5.436-8.34,11.068-12.224,16.742l16.616,11.374
			c3.652-5.337,7.523-10.638,11.502-15.752L170.767,52.487z"/>
	</g>
</g>
<g>
	<g>
		<path fill="#2761D8" d="M120.312,283.885l-20.085,1.429c0.488,6.869,1.194,13.811,2.101,20.631l19.96-2.646
			C121.437,296.88,120.771,290.349,120.312,283.885z"/>
	</g>
</g>
<g>
	<g>
		<path fill="#2761D8" d="M119.888,244.859l-20.11-0.992c-0.279,5.625-0.418,11.341-0.418,16.989c0,1.25,0.006,2.498,0.02,3.745
			l20.136-0.218c-0.012-1.176-0.018-2.351-0.018-3.527C119.497,255.54,119.628,250.155,119.888,244.859z"/>
	</g>
</g>
<g>
	<g>
		<path fill="#2761D8" d="M125.445,322.549l-19.762,3.867c1.322,6.765,2.873,13.568,4.604,20.227l19.488-5.069
			C128.147,335.313,126.69,328.909,125.445,322.549z"/>
	</g>
</g>
<g>
	<g>
		<path fill="#2761D8" d="M441.092-78.776l-0.123,20.137c6.479,0.039,13.042,0.279,19.508,0.713l1.348-20.092
			C454.952-78.48,447.977-78.736,441.092-78.776z"/>
	</g>
</g>
<g>
	<g>
		<path fill="#2761D8" d="M338.871-63.781c-6.596,2.034-13.211,4.296-19.665,6.731l7.104,18.842
			c6.069-2.288,12.29-4.418,18.491-6.328L338.871-63.781z"/>
	</g>
</g>
<g>
	<g>
		<path fill="#2761D8" d="M420.367-78.282c-6.888,0.374-13.842,0.96-20.666,1.748l2.308,20.004c6.42-0.74,12.962-1.293,19.444-1.642
			L420.367-78.282z"/>
	</g>
</g>
<g>
	<g>
		<path fill="#2761D8" d="M149.678,396.597l-18.223,8.565c2.933,6.237,6.097,12.468,9.405,18.516l17.664-9.668
			C155.413,408.321,152.437,402.466,149.678,396.597z"/>
	</g>
</g>
<g>
	<g>
		<path fill="#2761D8" d="M379.182-73.532c-6.775,1.203-13.605,2.635-20.304,4.254l4.732,19.573c6.3-1.523,12.723-2.87,19.093-4.001
			L379.182-73.532z"/>
	</g>
</g>
<g>
	<g>
		<path fill="#2761D8" d="M773.933,204.22l-19.858,3.336c1.071,6.382,1.963,12.89,2.644,19.34l20.025-2.118
			C776.02,217.922,775.072,211.004,773.933,204.22z"/>
	</g>
</g>
<g>
	<g>
		<path fill="#2761D8" d="M229.132-6.203c-5.41,4.258-10.763,8.74-15.905,13.319l13.39,15.04c4.842-4.311,9.876-8.528,14.969-12.534
			L229.132-6.203z"/>
	</g>
</g>
<g>
	<g>
		<path fill="#2761D8" d="M764.562,163.805l-19.301,5.746c1.847,6.21,3.526,12.558,4.991,18.868l19.615-4.549
			C768.313,177.159,766.526,170.409,764.562,163.805z"/>
	</g>
</g>
<g>
	<g>
		<path fill="#2761D8" d="M263.242-29.827c-5.889,3.568-11.747,7.367-17.417,11.293L257.29-1.98
			c5.333-3.696,10.846-7.269,16.385-10.625L263.242-29.827z"/>
	</g>
</g>
<g>
	<g>
		<path fill="#2761D8" d="M198.161,21.374c-4.852,4.882-9.622,9.976-14.169,15.142l15.113,13.307
			c4.283-4.863,8.769-9.657,13.335-14.251L198.161,21.374z"/>
	</g>
</g>
<g>
	<g>
		<path fill="#2761D8" d="M299.997-49.128c-6.289,2.824-12.572,5.882-18.677,9.088l9.363,17.828
			c5.742-3.013,11.652-5.889,17.565-8.543L299.997-49.128z"/>
	</g>
</g>
<g>
	<g>
		<path fill="#2761D8" d="M659.432,492.143c-4.689,4.471-9.575,8.855-14.531,13.033l12.985,15.392
			c5.266-4.44,10.461-9.101,15.44-13.851L659.432,492.143z"/>
	</g>
</g>
<g>
	<g>
		<path fill="#2761D8" d="M708.862,431.981c-3.472,5.464-7.158,10.892-10.955,16.134l16.307,11.813
			c4.034-5.571,7.952-11.34,11.643-17.146L708.862,431.981z"/>
	</g>
</g>
<g>
	<g>
		<path fill="#2761D8" d="M685.984,463.559c-4.109,5.001-8.428,9.943-12.841,14.691l14.753,13.706
			c4.689-5.047,9.279-10.303,13.646-15.615L685.984,463.559z"/>
	</g>
</g>
<g>
	<g>
		<path fill="#2761D8" d="M561.875,555.883c-5.989,2.496-12.128,4.838-18.258,6.961l6.592,19.028
			c6.514-2.258,13.05-4.749,19.417-7.403L561.875,555.883z"/>
	</g>
</g>
<g>
	<g>
		<path fill="#2761D8" d="M596.926,538.667c-5.633,3.21-11.439,6.287-17.258,9.145l8.878,18.073
			c6.187-3.038,12.36-6.31,18.349-9.723L596.926,538.667z"/>
	</g>
</g>
<g>
	<g>
		<path fill="#2761D8" d="M629.604,517.307c-5.208,3.874-10.594,7.637-16.012,11.18l11.017,16.854
			c5.761-3.766,11.484-7.763,17.018-11.882L629.604,517.307z"/>
	</g>
</g>
<g>
	<g>
		<path fill="#2761D8" d="M778.298,245.467l-20.116,0.898c0.213,4.804,0.323,9.679,0.323,14.488c0,1.683-0.014,3.362-0.039,5.037
			l20.137,0.313c0.026-1.782,0.039-3.564,0.039-5.353C778.64,255.749,778.523,250.569,778.298,245.467z"/>
	</g>
</g>
<g>
	<g>
		<path fill="#2761D8" d="M757.576,285.397c-0.489,6.463-1.185,12.99-2.066,19.402l19.949,2.743
			c0.936-6.813,1.677-13.75,2.196-20.62L757.576,285.397z"/>
	</g>
</g>
<g>
	<g>
		<path fill="#2761D8" d="M742.258,361.729c-2.041,6.141-4.301,12.301-6.723,18.312l18.685,7.517
			c2.571-6.391,4.978-12.945,7.148-19.476L742.258,361.729z"/>
	</g>
</g>
<g>
	<g>
		<path fill="#2761D8" d="M727.715,397.884c-2.775,5.834-5.768,11.666-8.902,17.331l17.624,9.745
			c3.33-6.024,6.515-12.228,9.465-18.434L727.715,397.884z"/>
	</g>
</g>
<g>
	<g>
		<path fill="#2761D8" d="M752.26,324.036c-1.275,6.351-2.761,12.744-4.421,18.999l19.463,5.166
			c1.764-6.652,3.348-13.45,4.702-20.205L752.26,324.036z"/>
	</g>
</g>
<g>
	<g>
		<path fill="#2761D8" d="M168.42,430.848l-17.04,10.728c3.667,5.826,7.566,11.62,11.588,17.219l16.356-11.747
			C175.538,441.78,171.872,436.328,168.42,430.848z"/>
	</g>
</g>
<g>
	<g>
		<path fill="#2761D8" d="M279.891,537.99l-10.044,17.454c5.963,3.431,12.11,6.723,18.268,9.781l8.957-18.035
			C291.281,544.313,285.499,541.218,279.891,537.99z"/>
	</g>
</g>
<g>
	<g>
		<path fill="#2761D8" d="M247.349,516.524l-12.093,16.104c5.503,4.131,11.205,8.146,16.949,11.937l11.088-16.809
			C257.889,524.189,252.525,520.413,247.349,516.524z"/>
	</g>
</g>
<g>
	<g>
		<path fill="#2761D8" d="M217.636,491.25l-13.954,14.52c4.961,4.767,10.134,9.447,15.382,13.908l13.048-15.338
			C227.174,500.141,222.305,495.735,217.636,491.25z"/>
	</g>
</g>
<g>
	<g>
		<path fill="#2761D8" d="M191.193,462.553l-15.609,12.721c4.345,5.334,8.919,10.607,13.588,15.677l14.809-13.646
			C199.584,472.536,195.284,467.573,191.193,462.553z"/>
	</g>
</g>
<g>
	<g>
		<path fill="#2761D8" d="M314.779,555.317l-7.837,18.549c6.333,2.675,12.832,5.185,19.316,7.47l6.683-18.996
			C326.845,560.193,320.732,557.831,314.779,555.317z"/>
	</g>
</g>
<g>
	<g>
		<path fill="#2761D8" d="M389.632,576.57l-3.087,19.899c6.798,1.054,13.724,1.912,20.583,2.552l1.867-20.051
			C402.541,578.372,396.025,577.563,389.632,576.57z"/>
	</g>
</g>
<g>
	<g>
		<path fill="#2761D8" d="M351.532,568.243l-5.5,19.37c6.623,1.881,13.392,3.58,20.121,5.051l4.299-19.672
			C364.125,571.609,357.759,570.012,351.532,568.243z"/>
	</g>
</g>
<g>
	<g>
		<path fill="#2761D8" d="M447.999,580.237c-6.443,0.179-13.039,0.164-19.525-0.045l-0.653,20.127
			c3.711,0.12,7.469,0.18,11.181,0.18c3.181,0,6.396-0.044,9.556-0.131L447.999,580.237z"/>
	</g>
</g>
<g>
	<g>
		<path fill="#2761D8" d="M486.856,576.801c-6.395,0.963-12.912,1.74-19.374,2.31l1.77,20.057
			c6.868-0.607,13.797-1.431,20.596-2.453L486.856,576.801z"/>
	</g>
</g>
<g>
	<g>
		<path fill="#2761D8" d="M524.994,568.657c-6.233,1.738-12.605,3.306-18.943,4.658l4.207,19.693
			c6.738-1.44,13.515-3.105,20.146-4.952L524.994,568.657z"/>
	</g>
</g>
<g>
	<g>
		<path fill="#2761D8" d="M637.479,128.632l-16.704,11.244c22.362,33.222,34.973,71.61,36.791,111.583H449.74V148.09h32.89v-20.138
			h-32.89V43.625c12.186,0.557,24.303,2.11,36.135,4.666l4.249-19.685c-16.483-3.56-33.458-5.364-50.454-5.364
			c-131.391,0-238.286,106.894-238.286,238.286c0,50.235,15.639,96.881,42.287,135.351v0.909h0.629
			c40.329,57.647,105.485,96.694,179.826,101.504c5.547,1.237,11.183,1.864,16.884,1.864c6.071,0,12.069-0.726,17.965-2.128
			c122.397-9.859,218.98-112.608,218.98-237.5C677.957,213.929,663.961,167.973,637.479,128.632z M378.796,52.034
			c-12.109,11.538-23.237,26.548-33.001,44.788c-5.207,9.73-9.905,20.146-14.069,31.133h-64.404
			C295.215,92.046,334.057,65.055,378.796,52.034z M253.402,148.091h71.491c-9.529,31.497-15.02,66.702-15.964,103.369h-87.165
			C223.486,213.735,234.831,178.476,253.402,148.091z M221.762,271.597h87.114c0.74,37.633,6.255,73.789,16.017,106.055h-69.814
			C235.517,346.666,223.537,310.442,221.762,271.597z M269.446,397.788h62.281c4.162,10.986,8.86,21.398,14.07,31.133
			c8.71,16.272,18.507,29.982,29.12,40.946C332.923,456.787,296.347,431.325,269.446,397.788z M429.602,479.436
			c-0.797-0.034-1.59-0.077-2.384-0.122c-23.623-5.84-45.843-26.59-63.671-59.896c-3.666-6.849-7.056-14.079-10.173-21.629h76.225
			L429.602,479.436L429.602,479.436z M429.602,377.65h-83.617c-10.332-31.787-16.188-68.057-16.968-106.056h100.585V377.65
			L429.602,377.65z M429.602,251.46H329.073c0.994-37.022,6.822-72.331,16.91-103.369h83.619V251.46L429.602,251.46z
			 M429.602,127.955h-76.226c3.116-7.551,6.505-14.782,10.172-21.629c18.427-34.424,41.543-55.433,66.057-60.431v82.06H429.602z
			 M449.739,271.597H553.01c-0.777,37.998-6.636,74.266-16.966,106.055h-86.307V271.597H449.739z M455.666,479.088
			c-1.97,0.144-3.944,0.259-5.925,0.348v-81.647h78.911c-3.118,7.549-6.508,14.781-10.174,21.629
			C500.867,452.318,478.966,472.965,455.666,479.088z M508.316,468.601c10.148-10.747,19.536-24.027,27.915-39.68
			c5.211-9.729,9.906-20.146,14.071-31.133h59.596C583.831,430.285,548.674,455.188,508.316,468.601z M557.133,377.65
			c9.763-32.267,15.276-68.422,16.017-106.056h84.431c-1.772,38.846-13.754,75.069-33.316,106.056H557.133z"/>
	</g>
</g>
</svg>
