<?xml version="1.0" encoding="utf-8"?>
<!-- Generator: Adobe Illustrator 16.0.0, SVG Export Plug-In . SVG Version: 6.00 Build 0)  -->
<!DOCTYPE svg PUBLIC "-//W3C//DTD SVG 1.1//EN" "http://www.w3.org/Graphics/SVG/1.1/DTD/svg11.dtd">
<svg version="1.1" id="Layer_1" xmlns="http://www.w3.org/2000/svg" xmlns:xlink="http://www.w3.org/1999/xlink" x="0px" y="0px"
	 width="792px" height="612px" viewBox="0 0 792 612" enable-background="new 0 0 792 612" xml:space="preserve">
<g>
	<g>
		<g>
			<path fill="#2761D8" d="M652.784,307.114l-18.333-41.703c-1.085-2.47-2.291-4.919-3.582-7.276
				c-7.646-13.982-20.195-24.508-35.331-29.64c-15.09-5.116-31.446-4.433-46.063,1.924l-7.065,3.072l-9.027-20.536
				c-0.001-0.002-0.003-0.006-0.004-0.008l-6.651-15.129c-5.684-12.928-16.078-22.846-29.268-27.926
				c-13.125-5.055-27.403-4.688-40.215,1.031l-23.441,10.155c-4.337-6.169-9.604-10.876-15.744-14.054
				c-12.826-6.638-28.256-6.08-45.864,1.662l-16.774,7.374l-21.713-49.392c-8.838-20.107-25.243-33.904-45.005-37.854
				c-18.578-3.713-37.494,1.542-50.606,14.057c-19.675,18.777-25.329,46.97-14.413,71.8l82.25,188.275
				c-6.887-1.394-14.144-2.031-21.509-1.852c-19.129,0.472-36.33,6.555-47.847,16.812c-0.756,0.49-1.466,1.07-2.118,1.741
				c-11.574,11.919-17.28,26.338-16.503,41.694c0.972,19.193,11.935,38.12,31.704,54.736c0.1,0.085,0.201,0.167,0.305,0.248
				l169.069,133.063c2.188,1.723,4.852,2.611,7.542,2.611c1.66,0,3.33-0.339,4.904-1.031l242.206-106.475
				c4.175-1.835,6.977-5.849,7.261-10.4l1.317-21.105C685.802,416.39,675.607,359.03,652.784,307.114z M657.933,471.469
				l-0.856,13.692L428.368,585.705L265.207,457.289c-14.157-11.942-22.286-25.142-22.896-37.181
				c-0.395-7.805,2.28-15.073,7.956-21.637c0.41-0.325,0.802-0.681,1.175-1.064c14.594-15.03,50.989-16.069,69.995-2.131
				l41.995,40.334c2.364,2.27,5.406,3.398,8.444,3.398c3.203,0,6.4-1.255,8.795-3.746c4.664-4.856,4.508-12.574-0.348-17.238
				l-40.86-39.245L246.02,164.882c-8.188-18.628-0.764-35.137,8.916-44.374c7.258-6.927,18.368-9.91,28.993-7.785
				c12.033,2.405,21.786,10.842,27.463,23.756l70.782,161.012c2.008,4.568,6.478,7.288,11.167,7.288c1.638,0,3.303-0.332,4.9-1.034
				c6.163-2.71,8.964-9.903,6.254-16.067l-39.257-89.299l16.775-7.375c10.528-4.627,18.887-5.411,24.844-2.328
				c4.216,2.183,7.77,6.508,10.562,12.857l41.742,94.955c2.008,4.568,6.478,7.288,11.168,7.288c1.638,0,3.304-0.332,4.899-1.034
				c6.164-2.71,8.964-9.903,6.254-16.067l-36.811-83.735l22.335-9.676c0.047-0.021,0.094-0.041,0.14-0.063
				c6.857-3.073,14.513-3.273,21.556-0.561c7.082,2.727,12.66,8.048,15.71,14.985l49.603,112.848
				c2.008,4.568,6.477,7.288,11.167,7.288c1.639,0,3.304-0.332,4.899-1.034c6.164-2.709,8.964-9.902,6.254-16.066l-24.112-54.851
				l6.976-3.033c18.855-8.201,40.475-0.869,50.281,17.061c0.954,1.745,1.846,3.555,2.649,5.384l18.334,41.704
				C651.726,365.296,661.226,418.736,657.933,471.469z"/>
			<path fill="#2761D8" d="M610.03,468.234l-12.026,5.275c-6.166,2.704-8.972,9.895-6.268,16.061
				c2.006,4.573,6.478,7.298,11.171,7.298c1.635,0,3.298-0.33,4.89-1.03l12.027-5.274c6.166-2.704,8.971-9.895,6.267-16.062
				C623.389,468.336,616.198,465.529,610.03,468.234z"/>
			<path fill="#2761D8" d="M561.521,489.784l-128.438,56.333c-6.166,2.704-8.972,9.895-6.268,16.061
				c2.006,4.573,6.478,7.298,11.171,7.298c1.635,0,3.298-0.33,4.89-1.028l128.438-56.335c6.166-2.704,8.972-9.895,6.268-16.061
				C574.878,489.887,567.689,487.08,561.521,489.784z"/>
			<path fill="#2761D8" d="M244.85,55.101c1.189,5.763,6.265,9.729,11.926,9.729c0.817,0,1.647-0.083,2.478-0.253
				c6.594-1.362,10.835-7.811,9.474-14.405l-8.351-40.443c-1.36-6.593-7.812-10.832-14.404-9.474
				c-6.594,1.361-10.835,7.81-9.474,14.404L244.85,55.101z"/>
			<path fill="#2761D8" d="M140.027,57.193c3.546-5.725,1.779-13.239-3.945-16.784l-8.42-5.214
				c-5.725-3.546-13.238-1.78-16.784,3.945c-3.546,5.725-1.779,13.238,3.945,16.784l8.42,5.214c1.999,1.239,4.217,1.829,6.408,1.829
				C133.731,62.966,137.72,60.917,140.027,57.193z"/>
			<path fill="#2761D8" d="M163.701,88.076l26.006,17.105c2.065,1.358,4.389,2.007,6.688,2.007c3.966,0,7.854-1.933,10.198-5.494
				c3.7-5.625,2.138-13.185-3.487-16.885l-26.007-17.105c-5.626-3.7-13.185-2.139-16.885,3.487
				C156.514,76.816,158.076,84.375,163.701,88.076z"/>
			<path fill="#2761D8" d="M195.603,165.18c-1.362-6.593-7.809-10.833-14.405-9.474l-40.443,8.351
				c-6.594,1.36-10.835,7.81-9.474,14.404c1.19,5.763,6.265,9.729,11.927,9.729c0.817,0,1.647-0.083,2.479-0.253l40.443-8.351
				C192.723,178.224,196.965,171.774,195.603,165.18z"/>
			<path fill="#2761D8" d="M226.268,227.954c-5.626-3.701-13.186-2.138-16.885,3.487l-22.693,34.502
				c-3.7,5.625-2.138,13.185,3.487,16.885c2.065,1.358,4.389,2.007,6.688,2.007c3.966,0,7.855-1.933,10.197-5.494l22.693-34.502
				C233.454,239.214,231.893,231.654,226.268,227.954z"/>
			<path fill="#2761D8" d="M359.859,128.228c1.19,5.761,6.265,9.727,11.927,9.727c0.817,0,1.646-0.083,2.479-0.253l26.962-5.568
				c6.594-1.362,10.835-7.811,9.474-14.405s-7.81-10.836-14.405-9.474l-26.962,5.568
				C362.739,115.184,358.497,121.633,359.859,128.228z"/>
			<path fill="#2761D8" d="M447.617,122.296c0.817,0,1.647-0.083,2.479-0.253l8.427-1.74c6.595-1.362,10.836-7.811,9.474-14.405
				c-1.361-6.593-7.807-10.834-14.404-9.474l-8.427,1.74c-6.595,1.361-10.836,7.811-9.474,14.405
				C436.881,118.331,441.956,122.296,447.617,122.296z"/>
			<path fill="#2761D8" d="M322.739,75.563c2.065,1.358,4.389,2.007,6.688,2.007c3.966,0,7.856-1.932,10.197-5.493l22.693-34.502
				c3.7-5.625,2.138-13.185-3.487-16.885c-5.626-3.702-13.186-2.139-16.885,3.486l-22.693,34.502
				C315.552,64.304,317.114,71.864,322.739,75.563z"/>
		</g>
	</g>
</g>
</svg>
