<?xml version="1.0" encoding="utf-8"?>
<!-- Generator: Adobe Illustrator 16.0.0, SVG Export Plug-In . SVG Version: 6.00 Build 0)  -->
<!DOCTYPE svg PUBLIC "-//W3C//DTD SVG 1.1//EN" "http://www.w3.org/Graphics/SVG/1.1/DTD/svg11.dtd">
<svg version="1.1" id="Capa_1" xmlns="http://www.w3.org/2000/svg" xmlns:xlink="http://www.w3.org/1999/xlink" x="0px" y="0px"
	 width="367.334px" height="347.332px" viewBox="-80.5 -92.5 367.334 347.332" enable-background="new -80.5 -92.5 367.334 347.332"
	 xml:space="preserve">
<g>
	<path fill="#2761D8" d="M57.35,73.141C46.563,60.957,32.181,54.25,16.842,54.25c-15.337,0-29.721,6.706-40.503,18.891
		c-21.907,24.753-21.907,65.016,0,89.77l40.503,45.756l40.503-45.756C79.256,138.157,79.256,97.895,57.35,73.141z M50.235,156.613
		l-33.388,37.718l-33.392-37.718c-18.839-21.276-18.839-55.897,0-77.174C-7.591,69.322,4.27,63.75,16.842,63.75
		c12.574,0,24.439,5.572,33.388,15.69C69.07,100.716,69.07,135.331,50.235,156.613z"/>
	<path fill="#2761D8" d="M189.046,51.908L219.751,17.3c16.521-18.62,16.521-48.906,0-67.525
		c-8.169-9.206-19.077-14.274-30.708-14.274c-11.628,0-22.534,5.068-30.703,14.274c-16.521,18.62-16.521,48.905,0,67.525
		L189.046,51.908z M165.447-43.917c6.341-7.149,14.718-11.082,23.596-11.082c8.882,0,17.263,3.933,23.601,11.082
		c13.434,15.138,13.434,39.771,0,54.909l-23.598,26.605l-23.599-26.605C152.013-4.146,152.013-28.779,165.447-43.917z"/>
	<path fill="#2761D8" d="M207.367,194.456c-2.561-0.575-5.1,1.029-5.675,3.59c-0.548,2.422-1.604,4.649-3.148,6.612
		c-1.62,2.063-1.27,5.049,0.797,6.667c0.874,0.687,1.904,1.017,2.933,1.017c1.41,0,2.8-0.621,3.737-1.813
		c2.393-3.04,4.103-6.631,4.949-10.391C211.535,197.571,209.929,195.031,207.367,194.456z"/>
	<path fill="#2761D8" d="M109.475,82.75c-2.057-0.004-4.055-0.371-5.944-1.093c-2.433-0.926-5.193,0.296-6.134,2.745
		c-0.929,2.452,0.3,5.198,2.746,6.133c2.975,1.13,6.103,1.711,9.322,1.714h1.697c2.628,0,4.751-2.121,4.751-4.749
		s-2.123-4.75-4.751-4.75H109.475z"/>
	<path fill="#2761D8" d="M98.2,52.711c0.858,0,1.724-0.233,2.508-0.717c2.104-1.311,4.432-2.113,6.907-2.388
		c2.606-0.291,4.488-2.637,4.204-5.245c-0.286-2.608-2.619-4.469-5.246-4.204c-3.904,0.432-7.572,1.696-10.896,3.771
		c-2.228,1.388-2.903,4.318-1.515,6.546C95.065,51.917,96.611,52.711,98.2,52.711z"/>
	<path fill="#2761D8" d="M43.306,210.999h-9.501c-2.627,0-4.75,2.123-4.75,4.75c0,2.628,2.123,4.75,4.75,4.75h9.501
		c2.627,0,4.75-2.122,4.75-4.75C48.055,213.122,45.927,210.999,43.306,210.999z"/>
	<path fill="#2761D8" d="M128.467,125.499c-0.409,0-0.813,0.01-1.218,0.031c-2.619,0.103-4.653,2.314-4.549,4.938
		c0.1,2.555,2.208,4.555,4.74,4.555c0.067,0,0.133,0,0.198-0.004l9.308-0.019c2.626,0,4.75-2.124,4.75-4.752s-2.124-4.75-4.75-4.75
		H128.467z"/>
	<path fill="#2761D8" d="M126.092,49.5h9.499c2.628,0,4.75-2.123,4.75-4.749s-2.122-4.75-4.75-4.75h-9.499
		c-2.628,0-4.75,2.124-4.75,4.75S123.464,49.5,126.092,49.5z"/>
	<path fill="#2761D8" d="M184.445,125.499c-2.627,0-4.75,2.122-4.75,4.75s2.123,4.752,4.75,4.752h9.499
		c2.629,0,4.751-2.124,4.751-4.752s-2.122-4.75-4.751-4.75H184.445z"/>
	<path fill="#2761D8" d="M201.416,87.5c0-2.628-2.125-4.75-4.75-4.75h-9.5c-2.625,0-4.75,2.122-4.75,4.75s2.125,4.749,4.75,4.749
		h9.5C199.289,92.249,201.416,90.128,201.416,87.5z"/>
	<path fill="#2761D8" d="M155.945,135.001h9.502c2.626,0,4.748-2.124,4.748-4.752s-2.122-4.75-4.748-4.75h-9.502
		c-2.628,0-4.75,2.122-4.75,4.75S153.323,135.001,155.945,135.001z"/>
	<path fill="#2761D8" d="M164.092,49.5c2.626,0,4.75-2.123,4.75-4.749s-2.124-4.75-4.75-4.75h-9.499c-2.628,0-4.75,2.124-4.75,4.75
		s2.122,4.749,4.75,4.749H164.092z"/>
	<path fill="#2761D8" d="M130.167,82.75c-2.626,0-4.751,2.122-4.751,4.75s2.125,4.749,4.751,4.749h9.499
		c2.628,0,4.75-2.121,4.75-4.749s-2.122-4.75-4.75-4.75H130.167z"/>
	<path fill="#2761D8" d="M172.917,87.5c0-2.628-2.123-4.75-4.752-4.75h-9.5c-2.625,0-4.749,2.122-4.749,4.75
		s2.124,4.749,4.749,4.749h9.5C170.789,92.249,172.917,90.128,172.917,87.5z"/>
	<path fill="#2761D8" d="M239.771,104.752c-0.415-2.594-2.863-4.365-5.441-3.938c-2.596,0.413-4.355,2.854-3.938,5.444
		c0.132,0.844,0.209,1.703,0.199,2.62c0,1.595-0.229,3.173-0.677,4.693c-0.732,2.517,0.705,5.158,3.227,5.895
		c0.448,0.129,0.895,0.19,1.335,0.19c2.056,0,3.952-1.337,4.561-3.417c0.698-2.388,1.055-4.861,1.055-7.329
		C240.101,107.545,239.995,106.145,239.771,104.752z"/>
	<path fill="#2761D8" d="M157.305,210.999h-9.501c-2.628,0-4.75,2.123-4.75,4.75c0,2.628,2.122,4.75,4.75,4.75h9.501
		c2.627,0,4.749-2.122,4.749-4.75C162.054,213.122,159.926,210.999,157.305,210.999z"/>
	<path fill="#2761D8" d="M128.805,210.999h-9.501c-2.626,0-4.75,2.123-4.75,4.75c0,2.628,2.124,4.75,4.75,4.75h9.501
		c2.626,0,4.75-2.122,4.75-4.75C133.555,213.122,131.426,210.999,128.805,210.999z"/>
	<path fill="#2761D8" d="M181.059,173c0-2.628-2.122-4.75-4.75-4.75h-9.502c-2.626,0-4.749,2.122-4.749,4.75s2.123,4.75,4.749,4.75
		h9.502C178.931,177.75,181.059,175.628,181.059,173z"/>
	<path fill="#2761D8" d="M152.558,173c0-2.628-2.122-4.75-4.75-4.75h-9.5c-2.628,0-4.75,2.122-4.75,4.75s2.122,4.75,4.75,4.75h9.5
		C150.432,177.75,152.558,175.628,152.558,173z"/>
	<path fill="#2761D8" d="M185.466,210.999h-9.164c-2.628,0-4.75,2.123-4.75,4.75c0,2.628,2.122,4.75,4.75,4.75l9.358-0.003
		l0.14-4.751v4.751c2.626,0,4.584-2.126,4.584-4.751C190.384,213.122,188.094,210.999,185.466,210.999z"/>
	<path fill="#2761D8" d="M202.273,185.913c1.024,0,2.064-0.33,2.929-1.015c2.065-1.623,2.418-4.613,0.799-6.67
		c-2.389-3.035-5.473-5.541-8.928-7.258c-2.36-1.174-5.199-0.209-6.367,2.138c-1.168,2.352-0.209,5.201,2.138,6.372
		c2.199,1.085,4.165,2.687,5.685,4.627C199.469,185.294,200.861,185.913,202.273,185.913z"/>
	<path fill="#2761D8" d="M220.388,124.212c-2.038,0.856-4.195,1.287-6.423,1.287h-1.019c-2.628,0-4.751,2.122-4.751,4.75
		s2.123,4.752,4.751,4.752h1.019c3.496,0,6.892-0.684,10.096-2.03c2.422-1.015,3.557-3.799,2.541-6.216
		C225.589,124.337,222.786,123.193,220.388,124.212z"/>
	<path fill="#2761D8" d="M90.638,77.312c2.49-0.822,3.849-3.505,3.031-6c-0.547-1.667-0.827-3.41-0.827-5.168
		c0.003-0.717,0.047-1.434,0.134-2.132c0.327-2.603-1.517-4.983-4.119-5.306c-2.684-0.299-4.981,1.525-5.306,4.119
		c-0.134,1.074-0.205,2.166-0.208,3.296c0,2.792,0.438,5.539,1.296,8.161c0.661,2,2.518,3.268,4.513,3.268
		C89.645,77.549,90.147,77.479,90.638,77.312z"/>
	<path fill="#2761D8" d="M71.804,210.999h-9.498c-2.628,0-4.75,2.123-4.75,4.75c0,2.628,2.123,4.75,4.75,4.75h9.498
		c2.628,0,4.75-2.122,4.75-4.75C76.554,213.122,74.426,210.999,71.804,210.999z"/>
	<path fill="#2761D8" d="M119.578,175.82c1.807,0,3.526-1.028,4.323-2.773c1.088-2.391,0.043-5.205-2.34-6.293
		c-2.229-1.022-4.248-2.556-5.835-4.447c-1.69-2.01-4.682-2.27-6.691-0.579c-2.01,1.687-2.271,4.685-0.579,6.692
		c2.486,2.958,5.652,5.373,9.153,6.969C118.249,175.679,118.917,175.82,119.578,175.82z"/>
	<path fill="#2761D8" d="M227.043,86.257c-3.392-1.968-7.097-3.12-11.007-3.431c-2.605-0.191-4.901,1.742-5.106,4.366
		c-0.204,2.616,1.748,4.901,4.366,5.105c2.479,0.193,4.831,0.927,6.982,2.175c0.749,0.438,1.574,0.643,2.379,0.643
		c1.64,0,3.236-0.851,4.115-2.365C230.087,90.483,229.314,87.575,227.043,86.257z"/>
	<path fill="#2761D8" d="M100.305,210.999h-9.5c-2.627,0-4.749,2.123-4.749,4.75c0,2.628,2.122,4.75,4.749,4.75h9.5
		c2.628,0,4.75-2.122,4.75-4.75C105.055,213.122,102.926,210.999,100.305,210.999z"/>
	<path fill="#2761D8" d="M112.137,148.484c0.469-2.442,1.458-4.697,2.941-6.713c1.552-2.107,1.102-5.079-1.014-6.639
		c-2.114-1.55-5.082-1.103-6.639,1.012c-2.323,3.163-3.882,6.711-4.624,10.555c-0.494,2.575,1.192,5.063,3.771,5.563
		c0.299,0.057,0.604,0.085,0.897,0.085C109.704,152.337,111.692,150.756,112.137,148.484z"/>
	<path fill="#2761D8" d="M190.216,6.75c14.402,0,26.125-11.723,26.125-26.125c0-14.403-11.723-26.125-26.125-26.125
		s-26.124,11.723-26.124,26.125C164.092-4.973,175.813,6.75,190.216,6.75z M190.216-35.999c9.168,0,16.624,7.456,16.624,16.625
		c0,9.167-7.456,16.624-16.624,16.624c-9.166,0-16.625-7.457-16.625-16.624C173.591-28.543,181.055-35.999,190.216-35.999z"/>
	<path fill="#2761D8" d="M16.842,82.75c-15.718,0-28.5,12.783-28.5,28.501c0,15.716,12.782,28.498,28.5,28.498
		c15.717,0,28.501-12.782,28.501-28.498C45.343,95.533,32.56,82.75,16.842,82.75z M16.842,130.249
		c-10.479,0-18.999-8.52-18.999-18.998c0-10.481,8.521-19.002,18.999-19.002c10.478,0,19,8.521,19,19.002
		C35.842,121.729,27.32,130.249,16.842,130.249z"/>
</g>
</svg>
