<?xml version="1.0" encoding="utf-8"?>
<!-- Generator: Adobe Illustrator 16.0.0, SVG Export Plug-In . SVG Version: 6.00 Build 0)  -->
<!DOCTYPE svg PUBLIC "-//W3C//DTD SVG 1.1//EN" "http://www.w3.org/Graphics/SVG/1.1/DTD/svg11.dtd">
<svg version="1.1" id="Layer_1" xmlns="http://www.w3.org/2000/svg" xmlns:xlink="http://www.w3.org/1999/xlink" x="0px" y="0px"
	 width="792px" height="612px" viewBox="0 0 792 612" enable-background="new 0 0 792 612" xml:space="preserve">
<g>
	<g>
		<g>
			<rect x="249.652" y="179.609" fill="#CDDEFF" width="292.696" height="26.609"/>
			<rect x="515.739" y="219.521" fill="#CDDEFF" width="26.608" height="26.609"/>
			<rect x="249.652" y="219.521" fill="#CDDEFF" width="26.609" height="26.609"/>
			<rect x="382.696" y="93.13" fill="#CDDEFF" width="26.608" height="26.609"/>
			<rect x="422.608" y="93.13" fill="#CDDEFF" width="26.609" height="26.609"/>
			<rect x="342.782" y="93.13" fill="#CDDEFF" width="26.609" height="26.609"/>
			<rect x="302.87" y="93.13" fill="#CDDEFF" width="26.609" height="26.609"/>
			<rect x="462.521" y="93.13" fill="#CDDEFF" width="26.609" height="26.609"/>
			<path fill="#CDDEFF" d="M639.196,573.652c-11.674,6.226-21.795,11.604-42.902,11.729L674.71,350.12
				c2.157-6.477-0.938-13.537-7.162-16.339l-71.982-32.39V172.957c0-22.008-17.904-39.913-39.912-39.913h-19.957V66.521
				c0-7.348-5.956-13.304-13.304-13.304H409.304V0h-26.607v53.218H269.609c-7.348,0-13.304,5.956-13.304,13.304v66.521h-19.957
				c-22.008,0-39.913,17.905-39.913,39.913v128.426l-71.983,32.399c-6.227,2.802-9.32,9.862-7.16,16.339l78.416,235.259
				c-21.109-0.124-31.229-5.501-42.902-11.728c-13.068-6.968-27.881-14.868-56.152-14.868v26.609c21.62,0,31.82,5.439,43.63,11.738
				c13.067,6.971,27.878,14.87,56.151,14.87c7.484,0,13.868-0.495,19.51-1.51c16.326-2.568,27.116-8.317,36.638-13.391
				c11.791-6.283,21.972-11.708,43.507-11.708c21.62,0,31.819,5.439,43.63,11.738c13.067,6.971,27.88,14.87,56.151,14.87
				s43.084-7.899,56.152-14.868c11.81-6.3,22.01-11.739,43.63-11.739c21.61,0,31.824,5.425,43.65,11.709
				c9.552,5.073,20.372,10.821,36.756,13.39c5.64,1.017,12.021,1.51,19.505,1.51c28.271,0,43.084-7.899,56.152-14.868
				c11.811-6.3,22.011-11.739,43.63-11.739v-26.609C667.076,558.782,652.265,566.682,639.196,573.652z M645.664,353.111
				l-9.54,28.619l-226.82-104.216V246.75L645.664,353.111z M282.913,79.827h226.173v53.218H282.913V79.827z M223.043,172.957
				c0-7.336,5.968-13.304,13.304-13.304h33.261H522.39h33.261c7.336,0,13.304,5.968,13.304,13.304v116.458l-167.497-75.373
				c-3.473-1.563-7.448-1.564-10.919,0l-167.497,75.367V172.957H223.043z M146.337,353.111l236.359-106.36v30.765L155.876,381.73
				L146.337,353.111z M569.482,581.665c-6.463-2.103-11.816-4.938-17.697-8.063c-13.074-6.945-27.896-14.819-56.133-14.819
				c-28.271,0-43.084,7.9-56.152,14.869c-11.813,6.299-22.011,11.74-43.63,11.74s-31.82-5.44-43.63-11.74
				c-13.067-6.969-27.881-14.869-56.152-14.869c-28.181,0-42.97,7.881-56.019,14.833c-5.838,3.11-11.154,5.935-17.558,8.031
				l-58.172-174.524l218.356-100.324v158.854h26.609V306.799L627.66,407.125L569.482,581.665z"/>
		</g>
	</g>
</g>
</svg>
