<?xml version="1.0" encoding="utf-8"?>
<!-- Generator: Adobe Illustrator 16.0.0, SVG Export Plug-In . SVG Version: 6.00 Build 0)  -->
<!DOCTYPE svg PUBLIC "-//W3C//DTD SVG 1.1//EN" "http://www.w3.org/Graphics/SVG/1.1/DTD/svg11.dtd">
<svg version="1.1" id="Layer_1" xmlns="http://www.w3.org/2000/svg" xmlns:xlink="http://www.w3.org/1999/xlink" x="0px" y="0px"
	 width="874.066px" height="760.886px" viewBox="0 -148.886 874.066 760.886" enable-background="new 0 -148.886 874.066 760.886"
	 xml:space="preserve">
<g>
	<g>
		<path fill="#2761D8" d="M611.983,63.061c-6.199-6.752-15.013-10.626-24.179-10.626H570.95l2.005-30.748l2.489-38.175
			c1.922-29.469-8.142-57.568-28.332-79.119c-20.191-21.551-47.577-33.419-77.105-33.419h-84.018
			c-29.532,0-56.914,11.868-77.105,33.419c-20.191,21.551-30.254,49.646-28.333,79.118l3.735,57.259l0.76,11.665h-18.294
			c-9.167,0-17.98,3.873-24.18,10.626c-6.2,6.753-9.307,15.864-8.524,24.999l5.481,63.87c1.132,13.204,9.77,23.869,21.54,28.072
			v59.512c0,7.947,6.443,14.389,14.39,14.389c7.948,0,14.391-6.442,14.391-14.389V181.95h3.866
			c5.197,43.244,30.613,81.089,69.093,102.253c20.413,11.228,42.798,16.841,65.192,16.841c22.389,0,44.786-5.614,65.194-16.841
			c19.549-10.75,35.715-25.816,47.586-43.697c9.901-1.018,19.091-3.758,27.52-8.264c41.586-22.24,46.55-78.017,46.74-80.38
			c0-0.001,0-0.005,0-0.006l5.47-63.799C621.291,78.924,618.185,69.813,611.983,63.061z M272.23,153.167
			c-2.114,0-3.844-1.589-4.025-3.695L262.729,85.6c-0.125-1.463,0.5-2.48,1.05-3.079c0.548-0.597,1.509-1.308,2.976-1.308h20.171
			l4.693,71.954H272.23L272.23,153.167z M309.276-18.363c-1.398-21.443,5.922-41.886,20.612-57.568
			c14.69-15.679,34.617-24.315,56.104-24.315h84.017c1.864,0,3.712,0.088,5.55,0.217l-22.293,59.449
			c-3.604,5.988-36.303,55.183-141.2,64.988L309.276-18.363z M534.272,172.601c-0.904,13.858-4.434,27.107-10.214,39.183
			c-12.349-1.359-26.433-5.924-42.171-13.664c0.518-2.433,0.799-4.953,0.799-7.538c0-19.837-16.139-35.978-35.978-35.978
			s-35.977,16.139-35.977,35.978c0,19.838,16.138,35.977,35.977,35.977c6.569,0,12.729-1.778,18.034-4.866
			c14.772,7.609,28.684,12.979,41.69,16.08c-7.704,8.355-16.81,15.549-27.111,21.214c-32.137,17.678-70.508,17.678-102.646,0
			c-32.027-17.615-52.569-49.908-54.948-86.384l-7.792-119.481c81.055-7.434,125.262-37.062,147.043-58.332
			c5.825,6.68,14.146,12.832,24.898,18.384c11.616,6.001,30.949,12.311,57.564,18.792L534.272,172.601z M453.904,190.584
			c0,3.967-3.228,7.195-7.196,7.195s-7.197-3.228-7.197-7.195c0-3.968,3.229-7.196,7.197-7.196S453.904,186.616,453.904,190.584z
			 M546.724-18.365l-1.379,21.157c-26.669-6.704-39.812-11.857-46.256-15.188c-15.693-8.108-19.235-14.814-19.33-16.873
			c0.013-0.028,0.02-0.058,0.028-0.086c0.008-0.021,0.017-0.04,0.023-0.059l23.702-63.203c8.363,4.055,16.011,9.656,22.597,16.686
			C540.804-60.25,548.123-39.806,546.724-18.365z M557.374,205.309c2.299-7.556,3.952-15.364,4.913-23.358h14.765
			C572.715,190.836,566.433,199.58,557.374,205.309z M586.355,149.472c-0.182,2.106-1.911,3.695-4.025,3.695h-17.948l4.693-71.954
			h18.73c1.468,0,2.432,0.711,2.977,1.308c0.55,0.597,1.175,1.615,1.05,3.078L586.355,149.472z"/>
	</g>
</g>
<g>
	<g>
		<path fill="#2761D8" d="M788.979,568.071l-13.915-76.806c-7.798-43.046-28.261-82.119-59.181-112.999
			c-30.558-30.52-69.067-50.862-111.368-58.827c-13.038-2.455-26.372-3.699-39.632-3.699h-41.905c-3.817,0-7.477,1.517-10.176,4.213
			L428,404.757l-84.802-84.804c-2.698-2.697-6.359-4.215-10.177-4.215h-41.905c-13.255,0-26.588,1.245-39.631,3.699
			c-0.001,0-0.001,0-0.002,0c-42.299,7.966-80.811,28.307-111.368,58.826c-30.917,30.881-51.381,69.955-59.181,113L67.02,568.071
			c-0.761,4.2,0.382,8.516,3.115,11.789c2.734,3.271,6.779,5.166,11.045,5.166h693.638c4.265,0,8.312-1.895,11.045-5.166
			C788.599,576.587,789.738,572.271,788.979,568.071z M438.179,435.282l90.762-90.763h35.945c1.864,0,3.729,0.029,5.591,0.085
			L428,487.082l-20.811-20.812L438.179,435.282z M291.116,344.52h35.944l80.588,80.589l-20.811,20.812L285.525,344.605
			C287.389,344.547,289.253,344.52,291.116,344.52z M98.415,556.247l10.843-59.853c13.115-72.392,69.001-130.65,140.22-147.134
			l168.347,168.348c0.351,0.352,0.717,0.68,1.093,0.987c5.276,4.305,12.891,4.305,18.167,0c0.375-0.308,0.741-0.636,1.095-0.987
			l168.347-168.348c71.218,16.483,127.104,74.741,140.22,147.134l10.844,59.853H98.415L98.415,556.247z"/>
	</g>
</g>
<g>
	<g>
		<path fill="#2761D8" d="M275.457,268.295c-7.948,0-14.39,6.442-14.39,14.391v5.756c0,7.947,6.442,14.391,14.39,14.391
			s14.391-6.444,14.391-14.391v-5.756C289.848,274.737,283.407,268.295,275.457,268.295z"/>
	</g>
</g>
</svg>
