<?xml version="1.0" encoding="iso-8859-1"?>
<!-- Generator: Adobe Illustrator 19.0.0, SVG Export Plug-In . SVG Version: 6.00 Build 0)  -->
<svg version="1.1" id="Layer_1" xmlns="http://www.w3.org/2000/svg" xmlns:xlink="http://www.w3.org/1999/xlink" x="0px" y="0px"
	 viewBox="0 0 300 300" style="enable-background:new 0 0 300 300;" xml:space="preserve">
<g>
	<g>
		<g>
			<path d="M99.41,95.701l-3.415-12.779c-7.389,1.975-14.738,4.424-21.841,7.277l4.929,12.274
				C85.699,99.817,92.535,97.54,99.41,95.701z"/>
			<path d="M59.714,111.641l-6.364-11.595c-6.703,3.681-13.257,7.81-19.482,12.274l7.711,10.746
				C47.376,118.911,53.476,115.067,59.714,111.641z"/>
			<path d="M0,143.421l10.054,8.593c4.629-5.416,9.64-10.605,14.888-15.422l-8.943-9.743C10.358,132.025,4.975,137.599,0,143.421z"
				/>
			<path d="M285.464,138.098l-9.739,8.947c4.823,5.251,9.373,10.848,13.528,16.632L300,155.966
				C295.534,149.748,290.647,143.736,285.464,138.098z"/>
			<path d="M243.18,119.253c5.932,3.935,11.694,8.28,17.115,12.909l8.588-10.058c-5.826-4.977-12.016-9.646-18.398-13.874
				L243.18,119.253z"/>
			<path d="M230.536,96.687c-6.834-3.415-13.958-6.452-21.186-9.029l-4.44,12.459c6.726,2.396,13.356,5.222,19.714,8.401
				L230.536,96.687z"/>
			<path d="M110.915,105.603l8.989,0.004l7.493-11.363l14.428,0.099l-9.084,31.32v0.741c0,3.955,3.218,7.175,7.173,7.175h13.032
				l20.681-38.354l15.984,0.529c8.273,0,15.005-6.492,15.005-14.467c0.004-3.919-1.594-7.59-4.497-10.334
				c-2.817-2.663-6.545-4.133-10.665-4.133c-0.007,0-0.011,0-0.013,0l-15.951,0.533l-20.54-38.091l-13.054-0.004
				c-3.946,0.011-7.155,3.232-7.155,7.177v0.738l9.011,31.07l-14.489,0.126L119.9,57.23l-8.983,0.002c-3.69,0-6.69,3-6.69,6.688
				v34.996C104.227,102.605,107.224,105.603,110.915,105.603z M114.629,68.136h0.004l7.067,10.691l33.877-0.293l-11.275-38.867
				h2.434l20.657,38.305l22.224-0.743c1.281,0,2.471,0.459,3.353,1.29c0.8,0.756,1.239,1.737,1.239,2.766
				c0,2.242-2.063,4.063-4.424,4.065l-22.255-0.736l-20.796,38.559H144.3l11.35-39.138l-33.83-0.236l-7.191,10.896V68.136z"/>
			<path d="M171.305,156.619c-8.657-1.973-17.507-2.974-26.309-2.974c-55.362,0-102.633,37.756-114.949,91.814
				c-1.913,8.403-2.87,16.866-2.943,25.282h13.228c0.057-5.262,0.5-10.546,1.36-15.818c7.438,1.907,15.1,4.966,17.562,6.975
				c-0.115,0.853-0.247,1.717-0.381,2.588c-0.298,1.929-0.619,4.063-0.752,6.256h13.27c0.139-1.499,0.375-3.079,0.553-4.241
				c0.245-1.594,0.487-3.181,0.639-4.715c0.822-8.306-8.597-14.948-27.96-19.76c10.651-36.33,39.447-63.355,75.16-72.107
				c-1.968,3.805-3.553,8.513-4.215,14.469c-0.322,2.919-0.741,5.555-1.109,7.876c-1.481,9.36-3.013,19.039,9.644,24.673
				c7.098,3.17,12.064,3.695,16.052,4.111c1.94,0.203,3.65,0.384,5.467,0.849c0.641,2.149,0.317,7.4,0.187,9.499
				c-0.165,2.665-0.333,5.385,0.481,7.607c0.809,4.541,4.166,18.924,15.305,31.734H181.5
				c-19.134-12.492-22.182-33.848-22.308-34.787l-0.271-2.178c0.026-0.516,0.06-1.08,0.09-1.563
				c0.425-6.884,1.219-19.705-8.595-22.703c-3.39-1.034-6.304-1.338-8.875-1.609c-3.686-0.388-6.867-0.723-12.051-3.035
				c-3.393-1.512-3.393-1.512-1.966-10.528c0.39-2.467,0.833-5.266,1.188-8.493c1.01-9.106,4.847-14.877,8.313-18.658
				c2.634-0.196,5.29-0.315,7.971-0.315c7.814,0,15.677,0.888,23.373,2.641c27.292,6.218,50.531,22.689,65.43,46.378
				c10.098,16.057,15.532,34.128,16.059,52.605c-1.1,0.721-2.469,1.481-3.941,2.246h17.174c-0.123-21.726-6.241-43.04-18.096-61.89
				C228.213,182.172,202.043,163.622,171.305,156.619z"/>
		</g>
	</g>
</g>
<g>
</g>
<g>
</g>
<g>
</g>
<g>
</g>
<g>
</g>
<g>
</g>
<g>
</g>
<g>
</g>
<g>
</g>
<g>
</g>
<g>
</g>
<g>
</g>
<g>
</g>
<g>
</g>
<g>
</g>
</svg>
