<?xml version="1.0" encoding="utf-8"?>
<!-- Generator: Adobe Illustrator 16.0.0, SVG Export Plug-In . SVG Version: 6.00 Build 0)  -->
<!DOCTYPE svg PUBLIC "-//W3C//DTD SVG 1.1//EN" "http://www.w3.org/Graphics/SVG/1.1/DTD/svg11.dtd">
<svg version="1.1" id="Layer_1" xmlns="http://www.w3.org/2000/svg" xmlns:xlink="http://www.w3.org/1999/xlink" x="0px" y="0px"
	 width="792px" height="612px" viewBox="0 0 792 612" enable-background="new 0 0 792 612" xml:space="preserve">
<g>
	<g>
		<path fill="#2761D8" d="M687.576,195.858L401.38,1.653c-3.246-2.206-7.511-2.204-10.76,0L104.424,195.858
			c-2.628,1.783-4.203,4.752-4.203,7.93v398.63c0,5.292,4.29,9.583,9.583,9.583h572.393c5.293,0,9.583-4.29,9.583-9.583v-398.63
			C691.779,200.61,690.206,197.641,687.576,195.858z M325.089,592.836h-103.49v-103.49h21.72v51.745c0,5.291,4.29,9.582,9.583,9.582
			h40.886c5.292,0,9.583-4.289,9.583-9.582v-51.745h21.72L325.089,592.836L325.089,592.836z M201.157,245.312v-21.72h389.688v21.72
			H201.157z M262.485,531.508v-42.162h21.72v42.162H262.485z M325.089,470.18h-31.303h-40.886h-31.303v-103.49h21.72v51.745
			c0,5.292,4.29,9.583,9.583,9.583h40.886c5.292,0,9.583-4.29,9.583-9.583v-51.745h21.72V470.18z M262.485,408.852v-42.162h21.72
			v42.162H262.485z M447.745,592.836h-103.49v-103.49h21.72v51.745c0,5.291,4.29,9.582,9.583,9.582h40.886
			c5.293,0,9.583-4.289,9.583-9.582v-51.745h21.72L447.745,592.836L447.745,592.836z M385.14,531.508v-42.162h21.72v42.162H385.14z
			 M672.614,592.836h-83.048V387.771c0-5.292-4.289-9.583-9.583-9.583c-5.293,0-9.583,4.29-9.583,9.583v205.063H466.911V479.763
			c0-5.292-4.289-9.583-9.583-9.583H344.255V357.106c0-5.291-4.29-9.583-9.583-9.583H221.599v-83.047H570.4v82.41
			c0,5.292,4.289,9.583,9.583,9.583c5.293,0,9.583-4.29,9.583-9.583v-82.41h10.86c5.293,0,9.583-4.29,9.583-9.583v-40.884
			c0-5.292-4.289-9.583-9.583-9.583H191.574c-5.292,0-9.583,4.29-9.583,9.583v40.886c0,5.292,4.29,9.583,9.583,9.583h10.86v328.36
			h-83.048V208.865L396,21.163l276.613,187.702L672.614,592.836L672.614,592.836z"/>
	</g>
</g>
<g>
	<g>
		<path fill="#2761D8" d="M436.886,81.77h-81.77c-5.292,0-9.583,4.29-9.583,9.583s4.29,9.583,9.583,9.583h81.77
			c5.293,0,9.583-4.29,9.583-9.583S442.179,81.77,436.886,81.77z"/>
	</g>
</g>
<g>
	<g>
		<path fill="#2761D8" d="M436.886,122.656h-81.77c-5.292,0-9.583,4.29-9.583,9.583c0,5.292,4.29,9.583,9.583,9.583h81.77
			c5.293,0,9.583-4.29,9.583-9.583C446.469,126.946,442.179,122.656,436.886,122.656z"/>
	</g>
</g>
<g>
	<g>
		<path fill="#2761D8" d="M436.886,163.54h-81.77c-5.292,0-9.583,4.29-9.583,9.583s4.29,9.583,9.583,9.583h81.77
			c5.293,0,9.583-4.29,9.583-9.583S442.179,163.54,436.886,163.54z"/>
	</g>
</g>
<g>
	<g>
		<path fill="#2761D8" d="M293.788,439.517h-40.886c-5.292,0-9.583,4.29-9.583,9.583c0,5.291,4.29,9.582,9.583,9.582h40.886
			c5.292,0,9.583-4.289,9.583-9.582C303.369,443.807,299.079,439.517,293.788,439.517z"/>
	</g>
</g>
<g>
	<g>
		<path fill="#2761D8" d="M293.788,562.171h-40.886c-5.292,0-9.583,4.29-9.583,9.583c0,5.292,4.29,9.583,9.583,9.583h40.886
			c5.292,0,9.583-4.29,9.583-9.583C303.369,566.462,299.079,562.171,293.788,562.171z"/>
	</g>
</g>
<g>
	<g>
		<path fill="#2761D8" d="M416.442,562.171h-40.886c-5.292,0-9.583,4.29-9.583,9.583c0,5.292,4.29,9.583,9.583,9.583h40.886
			c5.293,0,9.583-4.29,9.583-9.583C426.025,566.462,421.736,562.171,416.442,562.171z"/>
	</g>
</g>
</svg>
